# xmcd CD database file
#
# Track frame offsets:
#	150
#	15507
#	32285
#	50990
#	63417
#	82082
#	101497
#	119230
#	142475
#	157692
#	172077
#	193330
#	207185
#	222687
#	244350
#	260697
#	275247
#	290200
#
# Disc length: 4209 seconds
#
# Revision: 0
# Processed by: cddbd v1.5.2PL0 Copyright (c) Steve Scherf et al.
# Submitted via: CDex 1.51
#
DISCID=32106f12
DTITLE=Jeff Turner - Winter HOG Brunch 2009
DYEAR=2009
DGENRE=Country
TTITLE0=There's Music In The Mountains
TTITLE1=Brother Highway
TTITLE2=Have You Ever Been To Sydney In The Spring
TTITLE3=North To Alaska
TTITLE4=Lucky Old Sun
TTITLE5=Play Ruby Play
TTITLE6=Say It's Only Me
TTITLE7=For You (Medley)
TTITLE8=(Slow Dance) Last Chance
TTITLE9=Sixteen Tons
TTITLE10=The Ballade Ov Billy and Manuela Marie
TTITLE11=Truck Driving Man
TTITLE12=Thank You For A Beautiful Day
TTITLE13=(The Original) Waltzing Matilda
TTITLE14=Amazing Grace
TTITLE15=Sunshine Girl
TTITLE16=Wanderin' Star
TTITLE17=Rock and Roll I Gave You The Best Years Of My Life
EXTD=YEAR: 2009
EXTT0=
EXTT1=
EXTT2=
EXTT3=
EXTT4=
EXTT5=
EXTT6=
EXTT7=
EXTT8=
EXTT9=
EXTT10=
EXTT11=
EXTT12=
EXTT13=
EXTT14=
EXTT15=
EXTT16=
EXTT17=
PLAYORDER=
